<svg width="260" height="64" viewBox="0 0 260 64" xmlns="http://www.w3.org/2000/svg" fill="none">
  <g fill="#050505">
    <path d="M6 46 22 14h22l-5.4 10.6h30L74 14h22L80 46H58l5.5-11H33.5L28 46H6Z"/>
    <path d="M93 46 109 14h51.5c8.5 0 13.2 5.3 10.2 11.6l-2.2 4.6c-2.5 5.4-9.2 9.4-16.4 9.4h-30.2L118.8 46H93Zm33.8-16.4h22.5c2 0 3.9-1.1 4.6-2.6l.5-1.1c.8-1.6-.3-2.9-2.5-2.9h-22.3l-2.8 6.6Z"/>
    <path d="M174 46c-8.5 0-13.2-5.3-10.2-11.6l4.2-8.8c3-6.3 12.8-11.6 21.3-11.6h48l-5.2 10.4h-39.5c-2.4 0-5.1 1.5-6 3.4l-2.4 5c-.9 1.9.4 3.4 2.9 3.4h39.5L221.5 46H174Z"/>
  </g>
  <g fill="#050505" font-family="Arial, Helvetica, sans-serif" font-weight="900" letter-spacing="1.4">
    <text x="180" y="23" font-size="10">HIGH</text>
    <text x="180" y="36" font-size="10">PERFORMANCE</text>
    <text x="180" y="49" font-size="10">CLUB</text>
  </g>
</svg>
